<svg xmlns="http://www.w3.org/2000/svg" viewBox="0 0 800 600">
  <defs>
    <linearGradient id="bg-implante" x1="0" y1="0" x2="1" y2="1">
      <stop offset="0%" stop-color="#EAF1FF"/>
      <stop offset="100%" stop-color="#FFFFFF"/>
    </linearGradient>
  </defs>
  <rect width="800" height="600" fill="url(#bg-implante)"/>
  <circle cx="400" cy="300" r="190" fill="#FFFFFF"/>

  <path
    d="M0,-90 C45,-90 72,-63 76,-18 C81,9 76,36 68,58 C61,76 54,90 40,90 C31,90 27,72 13,72 C4,72 4,85 0,85 C-4,85 -4,72 -13,72 C-27,72 -31,90 -40,90 C-54,90 -61,76 -68,58 C-76,36 -81,9 -76,-18 C-72,-63 -45,-90 0,-90 Z"
    fill="#0F3D91"
    transform="translate(400,255) scale(1.5)"
  />

  <rect x="378" y="368" width="44" height="80" rx="4" fill="#3B82F6"/>
  <line x1="378" y1="382" x2="422" y2="382" stroke="#FFFFFF" stroke-width="5"/>
  <line x1="378" y1="398" x2="422" y2="398" stroke="#FFFFFF" stroke-width="5"/>
  <line x1="378" y1="414" x2="422" y2="414" stroke="#FFFFFF" stroke-width="5"/>
  <line x1="378" y1="430" x2="422" y2="430" stroke="#FFFFFF" stroke-width="5"/>
  <path d="M390,448 L410,448 L400,466 Z" fill="#3B82F6"/>
</svg>
