<svg xmlns="http://www.w3.org/2000/svg" viewBox="0 0 800 600">
  <rect width="800" height="600" fill="#F5F5F5"/>
  <path
    d="M0,-100 C50,-100 80,-70 85,-20 C90,10 85,40 75,65 C68,85 60,100 45,100 C35,100 30,80 15,80 C5,80 5,95 0,95 C-5,95 -5,80 -15,80 C-30,80 -35,100 -45,100 C-60,100 -68,85 -75,65 C-85,40 -90,10 -85,-20 C-80,-70 -50,-100 0,-100 Z"
    fill="#0F3D91"
    transform="translate(325,290) scale(1.3)"
  />
  <path
    d="M0,-100 C50,-100 80,-70 85,-20 C90,10 85,40 75,65 C68,85 60,100 45,100 C35,100 30,80 15,80 C5,80 5,95 0,95 C-5,95 -5,80 -15,80 C-30,80 -35,100 -45,100 C-60,100 -68,85 -75,65 C-85,40 -90,10 -85,-20 C-80,-70 -50,-100 0,-100 Z"
    fill="#0F3D91"
    transform="translate(475,290) scale(1.3)"
  />
  <path d="M545,195 L557,220 L582,226 L557,232 L545,257 L533,232 L508,226 L533,220 Z" fill="#3B82F6"/>
</svg>
